<svg width="53" height="58" viewBox="0 0 53 58" fill="none" xmlns="http://www.w3.org/2000/svg">
<g clip-path="url(#clip0_101_37)">
<path d="M42.07 36.8802C40.21 37.0402 33.69 37.8102 28.73 43.2302C23.52 48.9202 23.55 55.8602 23.61 57.6602C23.06 55.6002 20.89 48.5202 13.89 42.8402C8.14 38.1702 2.29 37.0302 0 36.7002C2.28 36.2402 8.04 34.7602 12.7 29.5802C17.47 24.2802 18.27 18.2202 18.46 15.9102C19.08 18.2002 20.88 23.6702 25.97 28.7102C32.47 35.1802 39.95 36.5602 42.07 36.8802Z" fill="white"/>
<path d="M38.77 31.8202C38.48 30.4102 37.31 25.4702 32.66 21.6102C27.79 17.5602 22.42 17.4602 21.03 17.4702C22.57 17.0902 27.87 15.5802 31.64 10.3902C34.75 6.12023 35.11 1.72023 35.16 -0.00976562C35.72 1.72023 37.38 6.11023 41.8 9.73023C46.33 13.4402 51.09 14.1502 52.89 14.3402C51.17 14.7702 47.1 16.0302 43.64 19.7802C39.23 24.5902 38.83 30.2202 38.77 31.8202Z" fill="#F3BB2F"/>
</g>
<defs>
<clipPath id="clip0_101_37">
<rect width="52.91" height="57.67" fill="white"/>
</clipPath>
</defs>
</svg>
